<?xml version="1.0" encoding="utf-8"?>
<!-- Generator: Adobe Illustrator 21.0.0, SVG Export Plug-In . SVG Version: 6.00 Build 0)  -->
<svg version="1.1" id="Capa_1" xmlns="http://www.w3.org/2000/svg" xmlns:xlink="http://www.w3.org/1999/xlink" x="0px" y="0px"
	 viewBox="0 0 52.6 51.4" style="enable-background:new 0 0 52.6 51.4;" xml:space="preserve">
<style type="text/css">
	.st0{fill:#FFFFFF;stroke:#FFFFFF;stroke-miterlimit:10;}
</style>
<path class="st0" d="M51.9,0.8c-0.3-0.3-0.8-0.4-1.1-0.2L1.1,23.4c-0.4,0.2-0.6,0.6-0.6,1s0.4,0.8,0.8,0.9L23.6,29l2.5,21
	c0.1,0.4,0.4,0.8,0.8,0.9c0.1,0,0.1,0,0.2,0c0.4,0,0.7-0.2,0.9-0.6L52,1.9C52.2,1.6,52.1,1.1,51.9,0.8z M27.7,46.5L25.5,28
	c-0.1-0.4-0.4-0.8-0.8-0.9L4.9,23.8L49,3.6L27.7,46.5z"/>
</svg>
