<?xml version="1.0" encoding="utf-8"?>
<!-- Generator: Adobe Illustrator 21.0.0, SVG Export Plug-In . SVG Version: 6.00 Build 0)  -->
<svg version="1.1" id="Layer_1" xmlns="http://www.w3.org/2000/svg" xmlns:xlink="http://www.w3.org/1999/xlink" x="0px" y="0px"
	 viewBox="0 0 408.7 492" style="enable-background:new 0 0 408.7 492;" xml:space="preserve">
<style type="text/css">
	.st0{fill:#FFFFFF;}
</style>
<g>
	<g>
		<path class="st0" d="M242.9,464.3l-0.2,0.8V135.9l103.7,103.5c5.1,5.1,11.9,7.8,19.1,7.8c7.2,0,14-2.8,19.1-7.8l16.1-16.1
			c5.1-5.1,7.9-11.8,7.9-19c0-7.2-2.8-14-7.8-19L223.4,7.8C218.3,2.8,211.6,0,204.4,0c-7.2,0-14,2.8-19.1,7.8L7.8,185.3
			c-5.1,5.1-7.8,11.8-7.8,19c0,7.2,2.8,13.9,7.8,19L24,239.4c5.1,5.1,11.8,7.8,19,7.8c7.2,0,13.6-2.8,18.7-7.8l104.3-104.7v330
			c0,14.8,12.8,27.3,27.6,27.3h22.8C231.1,492,242.9,479.2,242.9,464.3z"/>
	</g>
</g>
</svg>
