<?xml version="1.0" encoding="utf-8"?>
<!-- Generator: Adobe Illustrator 21.0.0, SVG Export Plug-In . SVG Version: 6.00 Build 0)  -->
<svg version="1.1" id="Capa_1" xmlns="http://www.w3.org/2000/svg" xmlns:xlink="http://www.w3.org/1999/xlink" x="0px" y="0px"
	 viewBox="0 0 50 50" style="enable-background:new 0 0 50 50;" xml:space="preserve">
<style type="text/css">
	.st0{fill:#F9556D;}
</style>
<g>
	<path class="st0" d="M25.2,23.7c3.5,0,6.4-2.9,6.4-6.4S28.7,11,25.2,11s-6.4,2.9-6.4,6.4S21.6,23.7,25.2,23.7z M25.2,12.8
		c2.5,0,4.6,2,4.6,4.6s-2,4.6-4.6,4.6s-4.6-2-4.6-4.6S22.6,12.8,25.2,12.8z"/>
	<path class="st0" d="M25,50l14-20.2c5.3-7,4.5-18.5-1.6-24.6C34.1,1.8,29.7,0,25,0s-9.1,1.8-12.4,5.1C6.5,11.2,5.7,22.8,11,29.7
		L25,50z M13.9,6.4c3-3,6.9-4.6,11.1-4.6s8.1,1.6,11.1,4.6c5.5,5.5,6.2,15.9,1.4,22.3L25,46.8L12.5,28.7C7.7,22.3,8.4,11.9,13.9,6.4
		z"/>
</g>
</svg>
