<?xml version="1.0" encoding="utf-8"?>
<!-- Generator: Adobe Illustrator 21.0.0, SVG Export Plug-In . SVG Version: 6.00 Build 0)  -->
<svg version="1.1" id="Capa_1" xmlns="http://www.w3.org/2000/svg" xmlns:xlink="http://www.w3.org/1999/xlink" x="0px" y="0px"
	 viewBox="0 0 36 51.4" style="enable-background:new 0 0 36 51.4;" xml:space="preserve">
<style type="text/css">
	.st0{fill:#F9556D;stroke:#F9556D;stroke-miterlimit:10;}
</style>
<g>
	<path class="st0" d="M18.2,24.2c3.5,0,6.4-2.9,6.4-6.4s-2.9-6.3-6.4-6.3s-6.4,2.9-6.4,6.4S14.6,24.2,18.2,24.2z M18.2,13.3
		c2.5,0,4.6,2,4.6,4.6s-2,4.6-4.6,4.6s-4.6-2-4.6-4.6S15.6,13.3,18.2,13.3z"/>
	<path class="st0" d="M18,50.5l14-20.2c5.3-7,4.5-18.5-1.6-24.6C27.1,2.3,22.7,0.5,18,0.5S8.9,2.3,5.6,5.6
		C-0.5,11.7-1.3,23.3,4,30.2L18,50.5z M6.9,6.9c3-3,6.9-4.6,11.1-4.6s8.1,1.6,11.1,4.6c5.5,5.5,6.2,15.9,1.4,22.3L18,47.3L5.5,29.2
		C0.7,22.8,1.4,12.4,6.9,6.9z"/>
</g>
</svg>
