<?xml version="1.0" encoding="utf-8"?>
<!-- Generator: Adobe Illustrator 21.0.0, SVG Export Plug-In . SVG Version: 6.00 Build 0)  -->
<svg version="1.1" id="Capa_1" xmlns="http://www.w3.org/2000/svg" xmlns:xlink="http://www.w3.org/1999/xlink" x="0px" y="0px"
	 viewBox="0 0 50 50" style="enable-background:new 0 0 50 50;" xml:space="preserve">
<style type="text/css">
	.st0{fill:#F9556D;}
</style>
<path class="st0" d="M46,7.2H4c-2.2,0-4,1.8-4,4v27.5c0,2.2,1.8,4,4,4h42c2.2,0,4-1.8,4-4V11.3C50,9,48.2,7.2,46,7.2z M46,8.8
	c0.4,0,0.8,0.1,1.1,0.3L26.9,26.8c-1,0.9-2.8,0.9-3.8,0L2.9,9.1C3.2,9,3.6,8.8,4,8.8H46z M48.4,38.7c0,1.3-1.1,2.4-2.4,2.4H4
	c-1.3,0-2.4-1.1-2.4-2.4V11.3c0-0.3,0.1-0.6,0.2-0.9L22,28c0.8,0.7,1.9,1.1,3,1.1s2.1-0.4,3-1.1l20.2-17.6c0.1,0.3,0.2,0.6,0.2,0.9
	V38.7z"/>
</svg>
