<?xml version="1.0" encoding="utf-8"?>
<!-- Generator: Adobe Illustrator 21.0.0, SVG Export Plug-In . SVG Version: 6.00 Build 0)  -->
<svg version="1.1" id="Capa_1" xmlns="http://www.w3.org/2000/svg" xmlns:xlink="http://www.w3.org/1999/xlink" x="0px" y="0px"
	 viewBox="0 0 51 36.5" style="enable-background:new 0 0 51 36.5;" xml:space="preserve">
<style type="text/css">
	.st0{fill:#F9556D;stroke:#F9556D;stroke-miterlimit:10;}
</style>
<path class="st0" d="M46.5,0.5h-42c-2.2,0-4,1.8-4,4V32c0,2.2,1.8,4,4,4h42c2.2,0,4-1.8,4-4V4.6C50.5,2.3,48.7,0.5,46.5,0.5z
	 M46.5,2.1c0.4,0,0.8,0.1,1.1,0.3L27.4,20.1c-1,0.9-2.8,0.9-3.8,0L3.4,2.4c0.3-0.1,0.7-0.3,1.1-0.3H46.5z M48.9,32
	c0,1.3-1.1,2.4-2.4,2.4h-42c-1.3,0-2.4-1.1-2.4-2.4V4.6c0-0.3,0.1-0.6,0.2-0.9l20.2,17.6c0.8,0.7,1.9,1.1,3,1.1s2.1-0.4,3-1.1
	L48.7,3.7c0.1,0.3,0.2,0.6,0.2,0.9V32z"/>
</svg>
