<?xml version="1.0" encoding="utf-8"?>
<!-- Generator: Adobe Illustrator 21.0.0, SVG Export Plug-In . SVG Version: 6.00 Build 0)  -->
<svg version="1.1" id="Capa_1" xmlns="http://www.w3.org/2000/svg" xmlns:xlink="http://www.w3.org/1999/xlink" x="0px" y="0px"
	 viewBox="0 0 51 51" style="enable-background:new 0 0 51 51;" xml:space="preserve">
<style type="text/css">
	.st0{fill:#F9556D;stroke:#F9556D;stroke-miterlimit:10;}
</style>
<path class="st0" d="M39.1,1.8l-6.7,10.1c-0.8,1.3-0.6,3,0.6,4l3.8,2.9c0.5,0.4,0.6,1.1,0.3,1.6L36.8,21c-1,1.9-2.3,4.2-6.9,8.8
	s-7,5.9-8.8,6.9l-0.6,0.4c-0.5,0.3-1.2,0.2-1.6-0.3L16,33c-0.9-1.2-2.7-1.5-4-0.6L1.8,39.1c-1.3,0.9-1.7,2.6-0.9,4l2.6,4.2
	c0.7,1.3,2,2.3,3.5,2.7c5.5,1.5,15.1,0.4,29.3-13.8C47.5,25,50.5,16.7,50.5,10.9c0-1.3-0.2-2.6-0.5-3.9c-0.4-1.5-1.4-2.8-2.7-3.5
	L43.1,1C41.7,0.1,39.9,0.5,39.1,1.8z M42.2,2.4l4.2,2.5c1,0.6,1.7,1.5,2,2.5c1.4,5.1,0.2,14.1-13.3,27.6S12.6,49.8,7.4,48.4
	c-1.1-0.3-2-1-2.5-2l-2.5-4.2c-0.4-0.6-0.2-1.4,0.3-1.7l5.5-3.7l4.6-3.1c0.6-0.4,1.3-0.2,1.7,0.3l3,3.8c0.9,1.2,2.5,1.5,3.7,0.8
	l0.5-0.3c2-1.1,4.4-2.4,9.2-7.2s6.2-7.3,7.2-9.2l0.3-0.5c0.7-1.3,0.4-2.9-0.8-3.7l-3.8-2.9c-0.5-0.4-0.6-1.2-0.3-1.7l7-10.4
	C40.8,2.2,41.6,2,42.2,2.4z"/>
</svg>
