<?xml version="1.0" encoding="utf-8"?>
<!-- Generator: Adobe Illustrator 21.0.0, SVG Export Plug-In . SVG Version: 6.00 Build 0)  -->
<svg version="1.1" id="Capa_1" xmlns="http://www.w3.org/2000/svg" xmlns:xlink="http://www.w3.org/1999/xlink" x="0px" y="0px"
	 viewBox="0 0 50 50" style="enable-background:new 0 0 50 50;" xml:space="preserve">
<style type="text/css">
	.st0{fill:#F9556D;}
</style>
<path class="st0" d="M38.6,1.3l-6.7,10.1c-0.8,1.3-0.6,3,0.6,4l3.8,2.9c0.5,0.4,0.6,1.1,0.3,1.6l-0.3,0.6c-1,1.9-2.3,4.2-6.9,8.8
	s-7,5.9-8.8,6.9L20,36.6c-0.5,0.3-1.2,0.2-1.6-0.3l-2.9-3.8c-0.9-1.2-2.7-1.5-4-0.6L1.3,38.6c-1.3,0.9-1.7,2.6-0.9,4L3,46.8
	c0.7,1.3,2,2.3,3.5,2.7C12,51,21.6,49.9,35.8,35.7C47,24.5,50,16.2,50,10.4c0-1.3-0.2-2.6-0.5-3.9C49.1,5,48.1,3.7,46.8,3l-4.2-2.5
	C41.2-0.4,39.4,0,38.6,1.3z M41.7,1.9l4.2,2.5c1,0.6,1.7,1.5,2,2.5C49.3,12,48.1,21,34.6,34.5S12.1,49.3,6.9,47.9
	c-1.1-0.3-2-1-2.5-2l-2.5-4.2c-0.4-0.6-0.2-1.4,0.3-1.7l5.5-3.7l4.6-3.1c0.6-0.4,1.3-0.2,1.7,0.3l3,3.8c0.9,1.2,2.5,1.5,3.7,0.8
	l0.5-0.3c2-1.1,4.4-2.4,9.2-7.2s6.2-7.3,7.2-9.2l0.3-0.5c0.7-1.3,0.4-2.9-0.8-3.7l-3.8-2.9c-0.5-0.4-0.6-1.2-0.3-1.7l7-10.4
	C40.3,1.7,41.1,1.5,41.7,1.9z"/>
</svg>
